<svg viewBox="0 0 190 60" version="1.1" xmlns="http://www.w3.org/2000/svg">
    <style>
        @media (prefers-color-scheme: dark) {
            #hammer { fill: #ffffff; }
            #blocks { fill: #ffffff; }
            #costered { fill: #ffffff; }
        }
    </style>
    <path id="hammer" d="M29.831,5l-5.777,5.217l11.857,13.126l2.842,-2.574c-1.002,-1.118 -1.817,-2.131 -2.283,-3.366c-0.501,-1.374 -0.419,-2.935 0.21,-4.822l-6.849,-7.581Zm26.311,1.889l-10.238,9.128l-1.234,-4.484l-4.193,10.832c-0,-0 4.81,-1.363 7.221,-2.039l-0,3.797l14.268,-9.271l-11.077,2.877l5.253,-10.84Zm-29.654,9.151l-18.988,17.145l2.573,2.853l18.978,-17.167l-2.563,-2.831Zm7.618,11.24l-0,4.263l6.231,6.522l-0.769,2.679l6.674,6.662l-1.491,1.491l-1.398,-1.398l-5.614,3.18l-1.024,-1.817l5.101,-2.889l-2.912,-2.911l-0.769,2.713l-2.026,-0.582l1.875,-6.546l-3.878,-4.064l-0,20.417l27.72,-0l-0,-27.72l-16.551,-0l2.19,5.159l6.382,0.723l4.531,-4.065l1.398,1.56l-2.003,1.806l1.49,4.426l-1.98,0.675l-1.211,-3.587l-1.526,1.374l-6.138,-0.699l2.143,5.044l-2.702,3.587l-1.677,-1.258l1.98,-2.632l-3.459,-8.118l-2.842,1.758l-1.095,-1.77l3.098,-1.922l0.058,0.105l-0.92,-2.166l-8.886,-0Z" style="fill-rule:nonzero;"/>
    <g id="blocks">
        <path d="M72.111,52.109l0,-20.972l7.486,-0c1.463,-0 2.791,0.15 3.985,0.451c1.193,0.302 2.14,0.829 2.839,1.581c0.699,0.753 1.049,1.818 1.049,3.195c-0,0.903 -0.285,1.801 -0.855,2.694c-0.57,0.893 -1.468,1.5 -2.695,1.823l0,0.129c1.485,0.28 2.598,0.817 3.34,1.613c0.742,0.796 1.113,1.893 1.113,3.291c0,1.441 -0.366,2.619 -1.097,3.533c-0.731,0.914 -1.71,1.587 -2.936,2.017c-1.226,0.43 -2.592,0.645 -4.098,0.645l-8.131,0Zm5.55,-12.712l1.807,-0c0.903,-0 1.559,-0.205 1.968,-0.613c0.409,-0.409 0.613,-0.936 0.613,-1.581c0,-0.646 -0.204,-1.108 -0.613,-1.388c-0.409,-0.279 -1.065,-0.419 -1.968,-0.419l-1.807,-0l0,4.001Zm0,8.453l2.194,0c1.097,0 1.888,-0.204 2.372,-0.613c0.484,-0.409 0.726,-1 0.726,-1.775c-0,-0.774 -0.242,-1.333 -0.726,-1.677c-0.484,-0.344 -1.275,-0.517 -2.372,-0.517l-2.194,0l0,4.582Z" style="fill-rule:nonzero;"/>
        <path d="M90.889,52.109l0,-20.972l5.55,-0l0,16.326l8.938,-0l-0,4.646l-14.488,0Z" style="fill-rule:nonzero;"/>
        <path d="M115.54,52.496c-1.7,0 -3.194,-0.408 -4.485,-1.226c-1.291,-0.817 -2.296,-2.038 -3.017,-3.662c-0.72,-1.624 -1.081,-3.651 -1.081,-6.082c0,-2.366 0.361,-4.35 1.081,-5.953c0.721,-1.602 1.726,-2.807 3.017,-3.614c1.291,-0.806 2.785,-1.209 4.485,-1.209c1.699,-0 3.194,0.403 4.485,1.209c1.29,0.807 2.296,2.012 3.016,3.614c0.721,1.603 1.081,3.587 1.081,5.953c0,2.431 -0.36,4.458 -1.081,6.082c-0.72,1.624 -1.726,2.845 -3.016,3.662c-1.291,0.818 -2.786,1.226 -4.485,1.226Zm-0,-4.775c0.602,0 1.118,-0.226 1.548,-0.678c0.431,-0.451 0.764,-1.134 1.001,-2.048c0.236,-0.915 0.355,-2.071 0.355,-3.469c-0,-1.334 -0.119,-2.447 -0.355,-3.339c-0.237,-0.893 -0.57,-1.56 -1.001,-2.001c-0.43,-0.441 -0.946,-0.661 -1.548,-0.661c-0.603,-0 -1.119,0.22 -1.549,0.661c-0.43,0.441 -0.764,1.108 -1,2.001c-0.237,0.892 -0.355,2.005 -0.355,3.339c-0,1.398 0.118,2.554 0.355,3.469c0.236,0.914 0.57,1.597 1,2.048c0.43,0.452 0.946,0.678 1.549,0.678Z" style="fill-rule:nonzero;"/>
        <path d="M136.447,52.496c-1.312,0 -2.565,-0.22 -3.759,-0.661c-1.193,-0.441 -2.253,-1.108 -3.178,-2.001c-0.925,-0.892 -1.656,-2.011 -2.194,-3.355c-0.537,-1.345 -0.806,-2.909 -0.806,-4.695c-0,-2.344 0.462,-4.339 1.387,-5.985c0.925,-1.645 2.162,-2.898 3.711,-3.759c1.548,-0.86 3.269,-1.29 5.162,-1.29c1.355,-0 2.587,0.274 3.694,0.822c1.108,0.549 2.028,1.178 2.759,1.888l-3.033,3.42c-0.473,-0.43 -0.984,-0.764 -1.533,-1c-0.548,-0.237 -1.177,-0.355 -1.887,-0.355c-0.86,-0 -1.635,0.242 -2.323,0.726c-0.688,0.484 -1.237,1.177 -1.646,2.081c-0.408,0.903 -0.613,1.99 -0.613,3.259c0,1.312 0.205,2.425 0.613,3.339c0.409,0.914 0.979,1.608 1.71,2.081c0.732,0.473 1.571,0.71 2.517,0.71c0.688,0 1.318,-0.161 1.888,-0.484c0.57,-0.323 1.08,-0.721 1.532,-1.194l3.033,3.356c-0.86,1.032 -1.893,1.807 -3.097,2.323c-1.205,0.516 -2.517,0.774 -3.937,0.774Z" style="fill-rule:nonzero;"/>
        <path d="M146.062,52.109l0,-20.972l5.614,-0l0,7.808l0.129,-0l5.163,-7.808l6.13,-0l-11.422,15.616l0,5.356l-5.614,0Zm11.422,0l-4.259,-8.97l3.226,-4.323l7.163,13.293l-6.13,0Z" style="fill-rule:nonzero;"/>
        <path d="M173.487,52.496c-1.376,0 -2.78,-0.247 -4.21,-0.742c-1.431,-0.495 -2.738,-1.247 -3.921,-2.258l3.162,-3.808c0.796,0.603 1.651,1.092 2.565,1.468c0.915,0.377 1.845,0.565 2.791,0.565c0.839,0 1.436,-0.118 1.791,-0.355c0.355,-0.236 0.532,-0.527 0.532,-0.871c0,-0.409 -0.118,-0.731 -0.354,-0.968c-0.237,-0.237 -0.581,-0.452 -1.033,-0.645c-0.452,-0.194 -1,-0.42 -1.645,-0.678l-2.614,-1.097c-0.796,-0.301 -1.533,-0.715 -2.21,-1.242c-0.678,-0.527 -1.215,-1.172 -1.613,-1.936c-0.398,-0.764 -0.597,-1.651 -0.597,-2.662c-0,-1.204 0.333,-2.296 1,-3.275c0.667,-0.979 1.602,-1.764 2.807,-2.355c1.205,-0.592 2.603,-0.887 4.194,-0.887c1.248,-0 2.501,0.231 3.759,0.693c1.259,0.463 2.393,1.167 3.404,2.114l-2.774,3.484c-0.753,-0.494 -1.474,-0.871 -2.162,-1.129c-0.689,-0.258 -1.538,-0.387 -2.549,-0.387c-0.602,-0 -1.097,0.113 -1.484,0.339c-0.388,0.225 -0.581,0.586 -0.581,1.08c-0,0.323 0.129,0.592 0.387,0.807c0.258,0.215 0.635,0.42 1.129,0.613c0.495,0.194 1.087,0.42 1.775,0.678l2.42,1c0.946,0.344 1.747,0.78 2.404,1.307c0.656,0.527 1.156,1.156 1.5,1.887c0.344,0.732 0.516,1.581 0.516,2.549c0,1.183 -0.323,2.286 -0.968,3.307c-0.645,1.022 -1.592,1.845 -2.839,2.469c-1.248,0.623 -2.775,0.935 -4.582,0.935Z" style="fill-rule:nonzero;"/>
    </g>
    <g id="costered">
        <path d="M78.828,24.455c-1.009,0 -1.932,-0.199 -2.768,-0.598c-0.837,-0.399 -1.562,-0.967 -2.177,-1.706c-0.615,-0.739 -1.088,-1.633 -1.42,-2.682c-0.332,-1.049 -0.497,-2.223 -0.497,-3.522c-0,-1.729 0.296,-3.226 0.888,-4.492c0.593,-1.266 1.414,-2.241 2.463,-2.925c1.05,-0.684 2.273,-1.026 3.67,-1.026c0.953,-0 1.792,0.199 2.518,0.599c0.725,0.4 1.303,0.85 1.731,1.351l-0.68,0.755c-0.438,-0.51 -0.954,-0.915 -1.548,-1.216c-0.593,-0.301 -1.267,-0.452 -2.021,-0.452c-1.198,0 -2.233,0.302 -3.105,0.905c-0.872,0.603 -1.543,1.457 -2.014,2.561c-0.471,1.105 -0.706,2.413 -0.706,3.925c-0,1.516 0.235,2.834 0.706,3.954c0.471,1.12 1.136,1.989 1.997,2.606c0.86,0.617 1.878,0.926 3.053,0.926c0.842,-0 1.59,-0.169 2.244,-0.506c0.655,-0.338 1.275,-0.838 1.861,-1.499l0.68,0.704c-0.617,0.72 -1.315,1.29 -2.092,1.709c-0.778,0.42 -1.706,0.629 -2.783,0.629Z" style="fill-rule:nonzero;"/>
        <path d="M91.781,24.455c-1.188,0 -2.242,-0.348 -3.161,-1.044c-0.919,-0.697 -1.64,-1.684 -2.163,-2.962c-0.524,-1.278 -0.786,-2.786 -0.786,-4.525c0,-1.73 0.262,-3.225 0.786,-4.486c0.523,-1.262 1.244,-2.232 2.163,-2.912c0.919,-0.68 1.973,-1.02 3.161,-1.02c1.188,0 2.242,0.34 3.161,1.02c0.919,0.68 1.641,1.65 2.164,2.912c0.523,1.261 0.785,2.756 0.785,4.486c0,1.739 -0.262,3.247 -0.785,4.525c-0.523,1.278 -1.245,2.265 -2.164,2.962c-0.919,0.696 -1.973,1.044 -3.161,1.044Zm0,-1.034c0.984,-0 1.844,-0.308 2.579,-0.924c0.735,-0.617 1.308,-1.485 1.719,-2.607c0.412,-1.121 0.618,-2.443 0.618,-3.966c-0,-1.518 -0.206,-2.828 -0.618,-3.931c-0.411,-1.103 -0.984,-1.954 -1.719,-2.553c-0.735,-0.6 -1.595,-0.9 -2.579,-0.9c-0.984,0 -1.843,0.3 -2.578,0.9c-0.735,0.599 -1.309,1.45 -1.72,2.553c-0.411,1.103 -0.617,2.413 -0.617,3.931c-0,1.523 0.206,2.845 0.617,3.966c0.411,1.122 0.985,1.99 1.72,2.607c0.735,0.616 1.594,0.924 2.578,0.924Z" style="fill-rule:nonzero;"/>
        <path d="M105.397,24.455c-1.238,0 -2.34,-0.231 -3.306,-0.693c-0.966,-0.463 -1.785,-1.053 -2.457,-1.771l0.735,-0.784c0.627,0.671 1.374,1.208 2.241,1.609c0.867,0.401 1.806,0.602 2.817,0.602c1.315,-0 2.359,-0.303 3.131,-0.91c0.772,-0.606 1.158,-1.392 1.158,-2.356c-0,-0.687 -0.143,-1.237 -0.43,-1.65c-0.286,-0.412 -0.67,-0.753 -1.152,-1.021c-0.481,-0.268 -1.015,-0.524 -1.6,-0.767l-2.48,-1.112c-0.508,-0.216 -1.037,-0.487 -1.588,-0.81c-0.551,-0.324 -1.017,-0.746 -1.398,-1.266c-0.38,-0.52 -0.57,-1.184 -0.57,-1.991c-0,-0.793 0.215,-1.491 0.646,-2.095c0.431,-0.604 1.024,-1.078 1.78,-1.421c0.755,-0.344 1.611,-0.515 2.567,-0.515c1.035,-0 1.961,0.192 2.78,0.578c0.819,0.385 1.491,0.845 2.015,1.38l-0.66,0.759c-0.505,-0.514 -1.103,-0.923 -1.797,-1.226c-0.693,-0.303 -1.481,-0.454 -2.362,-0.454c-1.134,0 -2.054,0.266 -2.762,0.797c-0.707,0.531 -1.061,1.24 -1.061,2.127c-0,0.635 0.166,1.151 0.499,1.547c0.333,0.397 0.738,0.718 1.215,0.963c0.477,0.246 0.929,0.461 1.354,0.645l2.464,1.104c0.654,0.265 1.263,0.574 1.827,0.927c0.564,0.353 1.016,0.8 1.355,1.34c0.34,0.54 0.509,1.227 0.509,2.061c0,0.836 -0.226,1.587 -0.677,2.254c-0.452,0.667 -1.087,1.192 -1.905,1.575c-0.819,0.383 -1.781,0.574 -2.888,0.574Z" style="fill-rule:nonzero;"/>
        <path d="M118.758,24.158l-0,-15.376l-5.686,-0l-0,-0.978l12.517,-0l0,0.978l-5.686,-0l-0,15.376l-1.145,-0Z" style="fill-rule:nonzero;"/>
        <path d="M129.188,24.158l0,-16.356l9.675,-0l-0,0.982l-8.533,0l0,6.195l7.183,0l-0,0.983l-7.183,0l0,7.213l8.781,-0l0,0.983l-9.923,-0Z" style="fill-rule:nonzero;"/>
        <path d="M143.092,24.158l0,-16.356l4.666,-0c1.084,-0 2.028,0.141 2.833,0.425c0.805,0.284 1.431,0.743 1.878,1.378c0.447,0.634 0.67,1.473 0.67,2.515c-0,0.993 -0.223,1.824 -0.67,2.493c-0.447,0.669 -1.073,1.176 -1.878,1.519c-0.805,0.343 -1.749,0.515 -2.833,0.515l-3.525,-0l0,7.511l-1.141,-0Zm1.141,-8.474l3.227,0c1.455,0 2.568,-0.294 3.342,-0.881c0.774,-0.587 1.16,-1.482 1.16,-2.683c0,-1.231 -0.386,-2.098 -1.16,-2.601c-0.774,-0.503 -1.887,-0.755 -3.342,-0.755l-3.227,0l0,6.92Zm3.269,0.628l1.092,-0.327l4.857,8.173l-1.325,-0l-4.624,-7.846Z" style="fill-rule:nonzero;"/>
        <path d="M156.986,24.158l-0,-16.356l9.674,-0l0,0.982l-8.533,0l0,6.195l7.183,0l-0,0.983l-7.183,0l0,7.213l8.781,-0l0,0.983l-9.922,-0Z" style="fill-rule:nonzero;"/>
        <path d="M170.12,24.158l-0,-16.356l3.77,-0c1.673,-0 3.056,0.332 4.15,0.996c1.093,0.664 1.908,1.606 2.444,2.826c0.537,1.219 0.805,2.654 0.805,4.304c-0,1.649 -0.268,3.092 -0.803,4.329c-0.536,1.237 -1.348,2.196 -2.439,2.878c-1.09,0.682 -2.468,1.023 -4.132,1.023l-3.795,-0Zm1.141,-0.968l2.517,-0c1.469,-0 2.668,-0.312 3.595,-0.934c0.928,-0.622 1.613,-1.477 2.055,-2.565c0.443,-1.088 0.664,-2.342 0.664,-3.763c0,-1.422 -0.221,-2.672 -0.664,-3.75c-0.442,-1.077 -1.127,-1.915 -2.055,-2.512c-0.927,-0.598 -2.126,-0.896 -3.595,-0.896l-2.517,-0l0,14.42Z" style="fill-rule:nonzero;"/>
    </g>
</svg>
