<?xml version="1.0" encoding="UTF-8" standalone="no"?>
<!DOCTYPE svg PUBLIC "-//W3C//DTD SVG 1.1//EN" "http://www.w3.org/Graphics/SVG/1.1/DTD/svg11.dtd">
<svg width="100%" height="100%" viewBox="0 0 24 24" version="1.1" xmlns="http://www.w3.org/2000/svg" xmlns:xlink="http://www.w3.org/1999/xlink" xml:space="preserve" xmlns:serif="http://www.serif.com/" style="fill-rule:evenodd;clip-rule:evenodd;stroke-linejoin:round;stroke-miterlimit:2;">
    <rect id="FlexDirectionColumnReverse" x="0" y="0" width="24" height="24" style="fill:none;"/>
    <path d="M6.72,15.698l2.56,-0c0.442,-0 0.8,0.358 0.8,0.8l0,2.559c0,0.442 -0.358,0.8 -0.8,0.8l-2.56,0c-0.441,0 -0.8,-0.358 -0.8,-0.8l0,-2.559c0,-0.442 0.359,-0.8 0.8,-0.8Z"/>
    <path d="M6.72,9.92l2.56,0c0.442,0 0.8,0.359 0.8,0.8l0,2.56c0,0.441 -0.358,0.8 -0.8,0.8l-2.56,-0c-0.441,-0 -0.8,-0.359 -0.8,-0.8l0,-2.56c0,-0.441 0.359,-0.8 0.8,-0.8Z"/>
    <path d="M6.72,4.143l2.56,-0c0.442,-0 0.8,0.358 0.8,0.8l0,2.559c0,0.442 -0.358,0.8 -0.8,0.8l-2.56,0c-0.441,0 -0.8,-0.358 -0.8,-0.8l0,-2.559c0,-0.442 0.359,-0.8 0.8,-0.8Z"/>
    <path d="M16.08,6.969l-0,12.476c-0,0.552 -0.448,1 -1,1c-0.552,0 -1,-0.448 -1,-1l-0,-12.476l-0.293,0.293c-0.39,0.39 -1.024,0.39 -1.414,-0c-0.39,-0.39 -0.39,-1.024 -0,-1.414l2,-2c0.188,-0.188 0.441,-0.293 0.707,-0.293c0.266,-0 0.519,0.105 0.707,0.293l2,2c0.39,0.39 0.39,1.024 0,1.414c-0.39,0.39 -1.024,0.39 -1.414,-0l-0.293,-0.293Z"/>
</svg>
