<?xml version="1.0" encoding="UTF-8" standalone="no"?>
<!DOCTYPE svg PUBLIC "-//W3C//DTD SVG 1.1//EN" "http://www.w3.org/Graphics/SVG/1.1/DTD/svg11.dtd">
<svg width="24px" height="24px" version="1.1" xmlns="http://www.w3.org/2000/svg" xmlns:xlink="http://www.w3.org/1999/xlink" xml:space="preserve" xmlns:serif="http://www.serif.com/" style="fill-rule:evenodd;clip-rule:evenodd;stroke-linejoin:round;stroke-miterlimit:2;">
    <rect id="JustifyGridStretch" x="0" y="0" width="24" height="24" style="fill:none;"/>
    <path d="M9.056,10.499l5.9,0c0.442,0 0.8,0.359 0.8,0.8l0,1.4c0,0.442 -0.358,0.8 -0.8,0.8l-5.9,0c-0.441,0 -0.8,-0.358 -0.8,-0.8l0,-1.4c0,-0.441 0.359,-0.8 0.8,-0.8Z"/>
    <path d="M5.527,11.46l1.324,0c0.299,0 0.541,0.243 0.541,0.541c0,0.299 -0.242,0.541 -0.541,0.541l-1.324,0l0.158,0.159c0.211,0.211 0.211,0.553 0,0.764c-0.211,0.211 -0.554,0.211 -0.765,0l-1.081,-1.081c-0.102,-0.102 -0.159,-0.239 -0.159,-0.383c0,-0.144 0.057,-0.28 0.159,-0.382l1.081,-1.082c0.211,-0.211 0.554,-0.211 0.765,0c0.211,0.211 0.211,0.554 0,0.765l-0.158,0.158Z"/>
    <path d="M18.488,12.541l-1.326,-0c-0.299,-0 -0.542,-0.243 -0.542,-0.542c0,-0.299 0.243,-0.541 0.542,-0.541l1.326,-0l-0.159,-0.159c-0.211,-0.211 -0.211,-0.554 0,-0.766c0.212,-0.211 0.555,-0.211 0.766,0l1.083,1.083c0.102,0.102 0.159,0.239 0.159,0.383c-0,0.144 -0.057,0.281 -0.159,0.383l-1.083,1.083c-0.211,0.212 -0.554,0.212 -0.766,0c-0.211,-0.211 -0.211,-0.554 0,-0.766l0.159,-0.158Z"/>
    <path d="M1.201,3.964c-0.001,-0.442 0.357,-0.8 0.799,-0.801c0.442,-0 0.8,0.358 0.801,0.799l0.015,16.073c0.001,0.441 -0.357,0.8 -0.799,0.8c-0.442,0.001 -0.8,-0.357 -0.801,-0.799l-0.015,-16.072Z"/>
    <path d="M21.201,3.964c-0.001,-0.442 0.357,-0.8 0.799,-0.801c0.442,-0 0.8,0.358 0.801,0.799l0.015,16.073c0.001,0.441 -0.357,0.8 -0.799,0.8c-0.442,0.001 -0.8,-0.357 -0.801,-0.799l-0.015,-16.072Z"/>
</svg>
