<?xml version="1.0" encoding="UTF-8" standalone="no"?>
<!DOCTYPE svg PUBLIC "-//W3C//DTD SVG 1.1//EN" "http://www.w3.org/Graphics/SVG/1.1/DTD/svg11.dtd">
<svg width="24px" height="24px" version="1.1" xmlns="http://www.w3.org/2000/svg" xmlns:xlink="http://www.w3.org/1999/xlink" xml:space="preserve" xmlns:serif="http://www.serif.com/" style="fill-rule:evenodd;clip-rule:evenodd;stroke-linecap:round;stroke-linejoin:round;stroke-miterlimit:1.5;">
    <rect id="PositionSticky" x="0" y="0" width="24" height="24" style="fill:none;"/>
    <path d="M21,17.7l-0,3.6c-0,0.386 -0.314,0.7 -0.7,0.7l-14.6,0c-0.386,0 -0.7,-0.314 -0.7,-0.7l-0,-3.6c-0,-0.386 0.314,-0.7 0.7,-0.7l14.6,0c0.386,0 0.7,0.314 0.7,0.7Zm-14.8,0.5l0,2.6l13.6,-0l-0,-2.6l-13.6,0Z"/>
    <rect x="5.5" y="5" width="15" height="4" style="fill:none;stroke:#000;stroke-width:1.2px;stroke-dasharray:0,1.5,0,1.5,0,1.5;stroke-dashoffset:3.6;"/>
    <path d="M2.6,22c0,0.331 -0.269,0.6 -0.6,0.6c-0.331,0 -0.6,-0.269 -0.6,-0.6l-0,-20c-0,-0.331 0.269,-0.6 0.6,-0.6l20,-0c0.331,-0 0.6,0.269 0.6,0.6c0,0.331 -0.269,0.6 -0.6,0.6l-19.4,-0l0,19.4Z"/>
    <path d="M12.496,14.585l0.002,-2.671l-0.121,0.121c-0.195,0.195 -0.512,0.195 -0.707,-0c-0.195,-0.196 -0.195,-0.513 0,-0.708l0.976,-0.974c0.094,-0.094 0.221,-0.146 0.354,-0.146c0.133,0 0.259,0.053 0.353,0.147l0.974,0.976c0.195,0.195 0.195,0.512 -0,0.707c-0.195,0.195 -0.512,0.194 -0.707,-0.001l-0.122,-0.121l-0.002,2.671l0.122,-0.121c0.195,-0.195 0.512,-0.195 0.707,0c0.195,0.196 0.195,0.513 -0.001,0.708l-0.976,0.974c-0.094,0.094 -0.22,0.146 -0.353,0.146c-0.133,-0 -0.26,-0.053 -0.354,-0.147l-0.974,-0.976c-0.195,-0.195 -0.195,-0.512 0.001,-0.707c0.195,-0.195 0.512,-0.194 0.707,0.001l0.121,0.121Z"/>
</svg>
