<?xml version="1.0" encoding="UTF-8" standalone="no"?>
<!DOCTYPE svg PUBLIC "-//W3C//DTD SVG 1.1//EN" "http://www.w3.org/Graphics/SVG/1.1/DTD/svg11.dtd">
<svg width="24px" height="24px" version="1.1" xmlns="http://www.w3.org/2000/svg" xmlns:xlink="http://www.w3.org/1999/xlink" xml:space="preserve" xmlns:serif="http://www.serif.com/" style="fill-rule:evenodd;clip-rule:evenodd;stroke-linejoin:round;stroke-miterlimit:2;">
    <rect id="PositionStatic" x="0" y="0" width="24" height="24" style="fill:none;"/>
    <path d="M22,9.12l0,5.76c0,0.618 -0.502,1.12 -1.12,1.12l-17.76,-0c-0.618,-0 -1.12,-0.502 -1.12,-1.12l0,-5.76c0,-0.618 0.502,-1.12 1.12,-1.12l17.76,-0c0.618,-0 1.12,0.502 1.12,1.12Zm-18.8,0.08l0,5.6l17.6,-0l-0,-5.6l-17.6,0Z"/>
    <path d="M2.5,3.2c-0.386,-0 -0.7,-0.314 -0.7,-0.7c0,-0.386 0.314,-0.7 0.7,-0.7l10,0c0.386,0 0.7,0.314 0.7,0.7c-0,0.386 -0.314,0.7 -0.7,0.7l-10,-0Z"/>
    <path d="M2.5,22.2c-0.386,-0 -0.7,-0.314 -0.7,-0.7c0,-0.386 0.314,-0.7 0.7,-0.7l10,0c0.386,0 0.7,0.314 0.7,0.7c-0,0.386 -0.314,0.7 -0.7,0.7l-10,-0Z"/>
    <path d="M2.5,5.2c-0.386,-0 -0.7,-0.314 -0.7,-0.7c0,-0.386 0.314,-0.7 0.7,-0.7l17,0c0.386,0 0.7,0.314 0.7,0.7c-0,0.386 -0.314,0.7 -0.7,0.7l-17,-0Z"/>
    <path d="M2.5,20.2c-0.386,-0 -0.7,-0.314 -0.7,-0.7c0,-0.386 0.314,-0.7 0.7,-0.7l17,0c0.386,0 0.7,0.314 0.7,0.7c-0,0.386 -0.314,0.7 -0.7,0.7l-17,-0Z"/>
    <path d="M2.5,7.2c-0.386,-0 -0.7,-0.314 -0.7,-0.7c0,-0.386 0.314,-0.7 0.7,-0.7l14,0c0.386,0 0.7,0.314 0.7,0.7c-0,0.386 -0.314,0.7 -0.7,0.7l-14,-0Z"/>
    <path d="M2.5,18.2c-0.386,-0 -0.7,-0.314 -0.7,-0.7c0,-0.386 0.314,-0.7 0.7,-0.7l14,0c0.386,0 0.7,0.314 0.7,0.7c-0,0.386 -0.314,0.7 -0.7,0.7l-14,-0Z"/>
</svg>
