<?xml version="1.0" encoding="UTF-8" standalone="no"?>
<!DOCTYPE svg PUBLIC "-//W3C//DTD SVG 1.1//EN" "http://www.w3.org/Graphics/SVG/1.1/DTD/svg11.dtd">
<svg width="24px" height="24px" version="1.1" xmlns="http://www.w3.org/2000/svg" xmlns:xlink="http://www.w3.org/1999/xlink" xml:space="preserve" xmlns:serif="http://www.serif.com/" style="fill-rule:evenodd;clip-rule:evenodd;stroke-linejoin:round;stroke-miterlimit:2;">
    <rect id="PositionRelative" x="0" y="0" width="24" height="24" style="fill:none;"/>
    <path d="M1.459,14.742c0.145,-0.2 0.381,-0.331 0.648,-0.331c0.441,0 0.8,0.359 0.8,0.8c-0,0.442 -0.359,0.8 -0.8,0.8c-0.254,0 -0.48,-0.118 -0.627,-0.302c-0.184,-0.147 -0.221,-0.768 -0.021,-0.967Zm13.114,-10.183c-0,-0.441 0.358,-0.8 0.8,-0.8c0.441,0 0.8,0.359 0.8,0.8c-0,0.442 -0.359,0.8 -0.8,0.8c-0.442,0 -0.8,-0.358 -0.8,-0.8Zm-0,2.105c-0,-0.442 0.358,-0.8 0.8,-0.8c0.441,-0 0.8,0.358 0.8,0.8c-0,0.441 -0.359,0.8 -0.8,0.8c-0.442,-0 -0.8,-0.359 -0.8,-0.8Zm-8.087,7.747c0.441,0 0.8,0.359 0.8,0.8c-0,0.442 -0.359,0.8 -0.8,0.8c-0.442,0 -0.8,-0.358 -0.8,-0.8c-0,-0.441 0.358,-0.8 0.8,-0.8Zm-2.19,0c0.442,0 0.8,0.359 0.8,0.8c0,0.442 -0.358,0.8 -0.8,0.8c-0.441,0 -0.8,-0.358 -0.8,-0.8c0,-0.441 0.359,-0.8 0.8,-0.8Zm-1.518,-1.433c-0,0.441 -0.359,0.8 -0.8,0.8c-0.442,-0 -0.8,-0.359 -0.8,-0.8c-0,-0.442 0.358,-0.8 0.8,-0.8c0.441,-0 0.8,0.358 0.8,0.8Zm-0,-2.105c-0,0.442 -0.359,0.8 -0.8,0.8c-0.442,0 -0.8,-0.358 -0.8,-0.8c-0,-0.441 0.358,-0.8 0.8,-0.8c0.441,0 0.8,0.359 0.8,0.8Zm-0,-2.105c-0,0.442 -0.359,0.8 -0.8,0.8c-0.442,0 -0.8,-0.358 -0.8,-0.8c-0,-0.441 0.358,-0.8 0.8,-0.8c0.441,0 0.8,0.359 0.8,0.8Zm-0,-2.104c-0,0.441 -0.359,0.8 -0.8,0.8c-0.442,-0 -0.8,-0.359 -0.8,-0.8c-0,-0.442 0.358,-0.8 0.8,-0.8c0.441,-0 0.8,0.358 0.8,0.8Zm-0,-2.105c-0,0.442 -0.359,0.8 -0.8,0.8c-0.442,0 -0.8,-0.358 -0.8,-0.8c-0,-0.441 0.358,-0.8 0.8,-0.8c0.441,0 0.8,0.359 0.8,0.8Zm-0,-2.104c-0,0.441 -0.359,0.8 -0.8,0.8c-0.442,-0 -0.8,-0.359 -0.8,-0.8c-0,-0.442 0.358,-0.8 0.8,-0.8c0.441,-0 0.8,0.358 0.8,0.8Zm1.518,0.671c-0.441,-0 -0.8,-0.359 -0.8,-0.8c0,-0.442 0.359,-0.8 0.8,-0.8c0.442,-0 0.8,0.358 0.8,0.8c0,0.441 -0.358,0.8 -0.8,0.8Zm2.19,-0c-0.442,-0 -0.8,-0.359 -0.8,-0.8c-0,-0.442 0.358,-0.8 0.8,-0.8c0.441,-0 0.8,0.358 0.8,0.8c-0,0.441 -0.359,0.8 -0.8,0.8Zm2.189,-0c-0.441,-0 -0.8,-0.359 -0.8,-0.8c0,-0.442 0.359,-0.8 0.8,-0.8c0.442,-0 0.8,0.358 0.8,0.8c0,0.441 -0.358,0.8 -0.8,0.8Zm2.19,-0c-0.442,-0 -0.8,-0.359 -0.8,-0.8c-0,-0.442 0.358,-0.8 0.8,-0.8c0.441,-0 0.8,0.358 0.8,0.8c-0,0.441 -0.359,0.8 -0.8,0.8Zm4.508,-0c-0.442,-0 -0.8,-0.359 -0.8,-0.8c-0,-0.442 0.358,-0.8 0.8,-0.8c0.441,-0 0.8,0.358 0.8,0.8c-0,0.441 -0.359,0.8 -0.8,0.8Zm-2.285,-0c-0.442,-0 -0.8,-0.359 -0.8,-0.8c-0,-0.442 0.358,-0.8 0.8,-0.8c0.441,-0 0.8,0.358 0.8,0.8c-0,0.441 -0.359,0.8 -0.8,0.8Z"/>
    <path d="M22.822,8.918l0,12.627l-0.073,0.362l-0.199,0.295l-0.295,0.199l-0.362,0.073l-13.137,0l-0.362,-0.073l-0.295,-0.199l-0.198,-0.295l-0.074,-0.362l0,-12.627l0.074,-0.362l0.198,-0.295l0.295,-0.199l0.362,-0.073l13.137,-0l0.362,0.073l0.295,0.199l0.199,0.295l0.073,0.362Zm-13.395,0.671l0,11.285l11.795,0l0,-11.285l-11.795,-0Z"/>
    <path d="M11.041,5.523l0,-1.154c0,-0.26 0.211,-0.471 0.471,-0.471c0.26,-0 0.472,0.211 0.472,0.471l-0,1.154l0.138,-0.138c0.183,-0.184 0.482,-0.184 0.666,-0c0.184,0.184 0.184,0.482 -0,0.666l-0.942,0.943c-0.089,0.088 -0.208,0.138 -0.334,0.138c-0.125,-0 -0.244,-0.05 -0.333,-0.138l-0.942,-0.943c-0.184,-0.184 -0.184,-0.482 -0,-0.666c0.184,-0.184 0.482,-0.184 0.666,-0l0.138,0.138Z"/>
    <path d="M5.242,11.951l-1.154,-0c-0.26,-0 -0.472,-0.212 -0.472,-0.472c0,-0.26 0.212,-0.471 0.472,-0.471l1.154,0l-0.138,-0.138c-0.184,-0.184 -0.184,-0.482 -0,-0.666c0.184,-0.184 0.482,-0.184 0.666,-0l0.942,0.942c0.089,0.089 0.138,0.208 0.138,0.333c0,0.126 -0.049,0.245 -0.138,0.334l-0.942,0.942c-0.184,0.184 -0.482,0.184 -0.666,-0c-0.184,-0.184 -0.184,-0.483 -0,-0.666l0.138,-0.138Z"/>
</svg>
