<?xml version="1.0" encoding="UTF-8" standalone="no"?>
<!DOCTYPE svg PUBLIC "-//W3C//DTD SVG 1.1//EN" "http://www.w3.org/Graphics/SVG/1.1/DTD/svg11.dtd">
<svg width="24px" height="24px" version="1.1" xmlns="http://www.w3.org/2000/svg" xmlns:xlink="http://www.w3.org/1999/xlink" xml:space="preserve" xmlns:serif="http://www.serif.com/" style="fill-rule:evenodd;clip-rule:evenodd;stroke-linejoin:round;stroke-miterlimit:2;">
    <rect id="PositionAbsolute" x="0" y="0" width="24" height="24" style="fill:none;"/>
    <path d="M2.6,22c0,0.331 -0.269,0.6 -0.6,0.6c-0.331,0 -0.6,-0.269 -0.6,-0.6l-0,-20c-0,-0.331 0.269,-0.6 0.6,-0.6l20,-0c0.331,-0 0.6,0.269 0.6,0.6c0,0.331 -0.269,0.6 -0.6,0.6l-19.4,-0l0,19.4Z"/>
    <path d="M20.15,12.925l0,5.76c0,0.618 -0.502,1.12 -1.12,1.12l-8.26,-0c-0.618,-0 -1.12,-0.502 -1.12,-1.12l0,-5.76c0,-0.618 0.502,-1.12 1.12,-1.12l8.26,-0c0.618,-0 1.12,0.502 1.12,1.12Zm-9.3,0.08l0,5.6l8.1,-0l0,-5.6l-8.1,-0Z"/>
    <path d="M4.715,15.305l2.808,-0l-0,-0.296c-0,-0.276 0.224,-0.5 0.5,-0.5c0.276,-0 0.5,0.224 0.5,0.5l-0,1.592c-0,0.276 -0.224,0.5 -0.5,0.5c-0.276,-0 -0.5,-0.224 -0.5,-0.5l-0,-0.296l-2.808,-0l0,0.296c0,0.276 -0.224,0.5 -0.5,0.5c-0.276,-0 -0.5,-0.224 -0.5,-0.5l0,-1.592c0,-0.276 0.224,-0.5 0.5,-0.5c0.276,-0 0.5,0.224 0.5,0.5l0,0.296Z"/>
    <path d="M14.394,9.684l0.005,-5.122l-0.296,-0.001c-0.276,0 -0.5,-0.224 -0.499,-0.5c-0,-0.276 0.224,-0.5 0.5,-0.5l1.592,0.002c0.276,0 0.5,0.224 0.5,0.5c-0.001,0.276 -0.225,0.5 -0.501,0.5l-0.296,-0l-0.005,5.122l0.296,0.001c0.276,-0 0.5,0.224 0.5,0.5c-0.001,0.276 -0.225,0.5 -0.501,0.5l-1.592,-0.002c-0.276,-0 -0.5,-0.225 -0.499,-0.5c-0,-0.276 0.224,-0.5 0.5,-0.5l0.296,0Z"/>
</svg>
